HIERARCHY
ROOT hip
{
	OFFSET 0.000000 0.000000 0.000000 
	CHANNELS 6 Xposition Yposition Zposition Xrotation Zrotation Yrotation
	JOINT abdomen
	{
		OFFSET 0.000000 3.402643 0.000000 
		CHANNELS 3 Xrotation Zrotation Yrotation
		JOINT chest
		{
			OFFSET 0.000000 8.438565 -0.680529 
			CHANNELS 3 Xrotation Zrotation Yrotation
			JOINT neck
			{
				OFFSET 0.000000 10.207942 -0.272212 
				CHANNELS 3 Xrotation Zrotation Yrotation
				JOINT head
				{
					OFFSET 0.000000 3.130431 0.000000 
					CHANNELS 3 Xrotation Zrotation Yrotation
					End Site
					{
						OFFSET 0.000000 3.130435 0.000000 
					}
				}
			}
			JOINT lCollar
			{
				OFFSET 3.470700 6.669187 -0.816635 
				CHANNELS 3 Yrotation Zrotation Xrotation
				JOINT lShldr
				{
					OFFSET 3.198488 0.000000 0.000000 
					CHANNELS 3 Zrotation Yrotation Xrotation
					JOINT lForeArm
					{
						OFFSET 10.139888 0.000000 0.000000 
						CHANNELS 3 Yrotation Zrotation Xrotation
						JOINT lHand
						{
							OFFSET 8.370511 0.000000 0.000000 
							CHANNELS 3 Zrotation Yrotation Xrotation
							End Site
							{
								OFFSET 4.083176 0.000000 0.000000 
							}
						}
					}
				}
			}
			JOINT rCollar
			{
				OFFSET -3.470700 6.669187 -0.816635 
				CHANNELS 3 Yrotation Zrotation Xrotation
				JOINT rShldr
				{
					OFFSET -3.198488 0.000000 0.000000 
					CHANNELS 3 Zrotation Yrotation Xrotation
					JOINT rForeArm
					{
						OFFSET -10.139888 0.000000 0.000000 
						CHANNELS 3 Yrotation Zrotation Xrotation
						JOINT rHand
						{
							OFFSET -8.370511 0.000000 0.000000 
							CHANNELS 3 Zrotation Yrotation Xrotation
							End Site
							{
								OFFSET -4.083176 0.000000 0.000000 
							}
						}
					}
				}
			}
		}
	}
	JOINT lThigh
	{
		OFFSET 5.308129 -1.633274 1.361059 
		CHANNELS 3 Xrotation Zrotation Yrotation
		JOINT lShin
		{
			OFFSET -2.041588 -20.007561 0.000000 
			CHANNELS 3 Xrotation Zrotation Yrotation
			JOINT lFoot
			{
				OFFSET 0.000000 -19.190928 -1.224953 
				CHANNELS 3 Xrotation Yrotation Zrotation
				End Site
				{
					OFFSET 0.000000 -2.449906 4.627600 
				}
			}
		}
	}
	JOINT rThigh
	{
		OFFSET -5.308129 -1.633274 1.361059 
		CHANNELS 3 Xrotation Zrotation Yrotation
		JOINT rShin
		{
			OFFSET 2.041588 -20.007561 0.000000 
			CHANNELS 3 Xrotation Zrotation Yrotation
			JOINT rFoot
			{
				OFFSET 0.000000 -19.190928 -1.224953 
				CHANNELS 3 Xrotation Yrotation Zrotation
				End Site
				{
					OFFSET 0.000000 -2.449906 4.627600 
				}
			}
		}
	}
}
MOTION
Frames: 17
Frame Time: 0.016667
-26.329067 33.268406 23.453848 -7.298815 8.695945 -110.010979 0.000000 0.000000 0.000000 18.451246 10.719683 -6.668566 22.648024 15.718400 31.635202 16.568468 11.812447 -48.173660 -14.747553 29.950157 20.414104 86.338318 -38.225334 -142.364700 -3.763562 -0.580757 -18.366056 106.252419 -55.088074 -12.322723 -10.115331 12.357553 18.723980 -84.309647 46.944141 -111.489014 0.126750 0.455181 30.214916 -85.665665 29.487116 -8.794503 28.361597 12.537751 13.237799 1.630594 -2.247982 32.444660 -14.436228 10.372477 -37.661095 -49.625092 -22.077290 -13.494358 73.054413 -0.531612 68.445732 69.104630 -116.896362 86.994614 
-26.367849 33.207661 23.311739 -7.624814 8.989701 -109.895241 0.000000 0.000000 0.000000 18.331018 11.311191 -6.243082 22.417988 16.235258 30.765942 16.965548 10.769970 -47.109512 -15.011288 29.994246 20.672613 83.435379 -38.123272 -140.833145 -4.868853 -0.116732 -20.110023 105.392731 -54.106930 -11.214918 -10.038790 13.132210 18.723206 -84.993156 45.851707 -111.487968 0.115757 0.259202 31.152359 -85.831306 28.870968 -9.124543 28.111490 12.480580 13.084929 1.525203 -2.189464 32.402214 -13.849649 11.086425 -37.931229 -49.741673 -21.783943 -13.239584 73.688820 -0.999309 67.910950 67.629501 -117.585709 86.679947 
-26.398649 33.211742 23.131571 -7.609547 9.479359 -110.077332 0.000000 0.000000 0.000000 18.284935 12.063546 -5.571389 22.301220 16.757097 30.154572 17.563105 10.066885 -45.801350 -14.849096 29.993402 20.872074 81.211739 -37.799160 -139.375580 -5.185331 0.141444 -21.889549 104.287735 -52.995361 -10.061275 -9.723652 13.849146 18.747839 -85.582825 44.765018 -111.706718 0.127258 -0.004219 32.275387 -85.800140 28.018885 -9.277040 27.865049 12.518907 13.126019 1.329222 -2.081481 32.648701 -13.078021 11.951708 -38.178066 -50.017387 -20.838465 -12.976671 73.749634 -1.288333 67.201469 65.485558 -117.817528 85.260750 
-26.429556 33.216557 22.951172 -7.615730 9.967736 -110.262833 0.000000 0.000000 0.000000 18.247013 12.815923 -4.896594 22.188524 17.273624 29.542675 18.134613 9.347363 -44.512737 -14.690418 29.993355 21.062881 79.006683 -37.432491 -137.939926 -5.485214 0.405311 -23.657253 103.256714 -51.859989 -8.972374 -9.406183 14.567067 18.764578 -86.150558 43.685703 -111.893181 0.119673 -0.278248 33.418026 -85.768967 27.176880 -9.448133 27.625025 12.588114 13.166245 1.154746 -2.005423 32.913128 -12.280026 12.829153 -38.422539 -50.287720 -19.889309 -12.717650 73.816940 -1.559096 66.488609 63.380222 -118.068985 83.885628 
-26.477514 33.335785 22.736685 -7.672506 10.293815 -110.347305 0.000000 0.000000 0.000000 18.304844 13.429451 -4.346289 22.168095 17.847998 28.969604 18.855673 8.828376 -43.521870 -14.850607 29.993774 21.394098 76.869156 -37.537048 -136.814911 -6.472494 0.599820 -24.586864 102.469795 -50.604519 -7.815552 -8.821761 14.990189 18.757481 -86.112953 42.657578 -111.230225 0.122270 -0.561607 33.945473 -85.865089 26.460236 -9.694866 27.350729 12.421847 13.088555 0.771949 -1.996988 33.091301 -10.786368 14.496653 -38.431427 -50.116428 -19.276989 -12.606133 73.395332 -1.437894 66.008698 62.783016 -118.192024 83.466827 
-26.525370 33.455929 22.521885 -7.727826 10.615108 -110.420418 0.000000 0.000000 0.000000 18.364286 14.052371 -3.794201 22.153030 18.427402 28.384090 19.578899 8.294003 -42.539513 -15.014522 29.992908 21.716555 74.724487 -37.609577 -135.669861 -7.462727 0.810609 -25.515129 101.728790 -49.338490 -6.720705 -8.236409 15.412404 18.748671 -86.092255 41.616993 -110.583191 0.124443 -0.835211 34.463188 -85.941330 25.757370 -9.926016 27.063654 12.235867 12.995319 0.379035 -1.979447 33.270313 -9.251532 16.217310 -38.474663 -49.947010 -18.649960 -12.493482 72.987389 -1.316318 65.525238 62.193298 -118.329857 83.030487 
-26.556925 33.720062 22.258821 -8.001951 11.083782 -110.356934 0.000000 0.000000 0.000000 18.312910 14.435697 -3.588203 22.079672 18.861813 28.053408 20.125990 8.324654 -41.906567 -14.953494 29.992939 21.719217 72.886101 -38.318745 -134.313614 -9.837747 0.707578 -26.038113 101.273270 -48.563217 -5.825035 -7.952395 15.479190 18.657904 -86.203331 40.930237 -110.091179 0.140164 -0.971373 34.414524 -85.951454 25.362276 -10.093941 26.216139 11.855380 12.625381 -0.138436 -1.950462 33.475471 -6.393976 19.389187 -38.561260 -49.584381 -18.424644 -12.548274 71.950363 -0.756228 65.257187 63.032318 -118.349747 83.452179 
-26.588404 33.984989 21.995378 -8.264572 11.550368 -110.285316 0.000000 0.000000 0.000000 18.263765 14.828753 -3.382348 22.011223 19.297884 27.724279 20.679380 8.345982 -41.271988 -14.905411 29.999018 21.721420 71.013351 -39.008636 -132.910645 -12.221065 0.622674 -26.564260 100.834587 -47.792278 -4.951795 -7.677215 15.542143 18.566395 -86.324432 40.242199 -109.588829 0.145704 -1.098205 34.355946 -85.951286 24.978935 -10.267778 25.369448 11.474556 12.242088 -0.673978 -1.921248 33.661880 -3.459141 22.560560 -38.796040 -49.234409 -18.191057 -12.613993 70.925720 -0.239780 65.015846 63.821999 -118.358849 83.809685 
-26.607977 34.371361 21.675842 -8.529977 12.171663 -110.078583 0.000000 0.000000 0.000000 18.094849 15.074240 -3.266603 21.859426 19.779345 27.510387 21.147997 8.432060 -40.944710 -14.894037 29.999430 21.594706 69.905174 -39.930229 -131.749329 -14.441511 0.448765 -26.769163 101.390694 -48.395916 -5.103845 -7.606332 15.757550 18.412876 -86.473663 39.842178 -109.103851 0.158443 -1.166074 34.121765 -85.593117 24.822664 -10.210418 23.847052 11.279375 11.725875 -0.977927 -1.852239 33.824448 -0.278572 25.690683 -37.682415 -48.630016 -17.957596 -12.696053 69.263466 0.672431 64.679245 64.213531 -118.250793 83.528801 
-26.627405 34.758110 21.356318 -8.804872 12.795513 -109.884567 0.000000 0.000000 0.000000 17.916651 15.329469 -3.148398 21.715229 20.255369 27.282841 21.617367 8.518304 -40.617485 -14.882736 29.999912 21.463110 68.753662 -40.824707 -130.535294 -16.660032 0.288042 -26.984032 101.946854 -49.001476 -5.253174 -7.543497 15.969748 18.261890 -86.629669 39.451492 -108.614212 0.161426 -1.234368 33.887398 -85.247757 24.646973 -10.154763 22.315178 11.082459 11.187412 -1.279246 -1.765345 33.966637 2.906708 28.854540 -36.728760 -48.030270 -17.681330 -12.778632 67.587700 1.572550 64.314041 64.597855 -118.122818 83.210205 
-26.623638 35.203106 21.039457 -8.974655 13.347012 -109.671951 0.000000 0.000000 0.000000 17.821512 15.427406 -3.120149 21.452484 20.560848 27.224627 21.898052 8.863276 -40.572605 -14.950992 29.991177 21.389723 68.459694 -41.620220 -129.834717 -18.048634 0.126266 -26.780050 102.883209 -50.548157 -6.075327 -7.658024 16.131714 18.205580 -86.796509 39.306179 -108.268364 0.169052 -1.185161 33.467464 -85.524132 23.804741 -9.085392 20.622719 10.908264 10.674561 -1.375690 -2.019301 34.074184 2.868482 29.135015 -35.803604 -47.047359 -17.527475 -13.037401 65.477493 2.823735 64.110359 65.824776 -117.920891 83.341583 
-26.619909 35.648319 20.722656 -9.162639 13.896828 -109.465309 0.000000 0.000000 0.000000 17.727026 15.515591 -3.089306 21.203657 20.875389 27.170710 22.172817 9.216308 -40.531044 -15.014578 29.994690 21.321648 68.150040 -42.397179 -129.120529 -19.443178 -0.034933 -26.572540 103.890129 -52.076271 -6.965254 -7.771883 16.283367 18.155970 -86.959381 39.152256 -107.921722 0.166495 -1.126623 33.047535 -85.806580 22.981829 -8.049802 18.910765 10.691945 10.149513 -1.485201 -2.234376 34.201969 2.828921 29.402588 -34.861183 -46.069649 -17.360502 -13.285128 63.358776 4.053531 63.890602 66.992874 -117.752014 83.399567 
-26.622349 36.123634 20.419039 -9.331632 14.286823 -109.567032 0.000000 0.000000 0.000000 17.693361 15.389241 -3.058480 21.112204 20.965084 27.377525 22.231134 9.390691 -40.855278 -15.116199 29.993908 21.282051 68.484818 -43.197536 -129.721680 -19.658012 -0.024377 -25.175287 104.676231 -52.480785 -7.841822 -7.823005 16.382067 18.126297 -86.960205 39.297974 -107.926186 0.165643 -1.107110 32.910625 -85.667709 22.972980 -7.725376 17.309649 10.243026 9.463077 -1.466332 -2.722712 34.746838 0.583335 27.315828 -32.940151 -44.780998 -17.106966 -13.437530 60.838421 5.324167 63.836445 66.742615 -117.493050 82.023613 
-26.624866 36.598831 20.115683 -9.500762 14.673804 -109.667778 0.000000 0.000000 0.000000 17.652447 15.263014 -3.015653 21.025238 21.052349 27.596819 22.279104 9.568773 -41.191051 -15.214437 29.993670 21.255909 68.841522 -43.982838 -130.352295 -19.859470 -0.017440 -23.775902 105.486252 -52.857616 -8.735404 -7.876878 16.479504 18.103210 -86.964912 39.452984 -107.936867 0.165216 -1.097354 32.783672 -85.532448 22.960266 -7.417390 15.711267 9.774758 8.807296 -1.465134 -3.210702 35.312122 -1.566507 25.187590 -31.118076 -43.480419 -16.851833 -13.611751 58.319126 6.581189 63.737133 66.434517 -117.255043 80.605049 
-26.639441 37.055656 19.853428 -9.753954 14.944563 -110.248993 0.000000 0.000000 0.000000 17.669628 14.912332 -2.979772 20.849722 20.776915 28.097797 22.455450 9.937487 -41.487309 -14.819359 29.993570 21.035645 69.367088 -44.633667 -131.076004 -19.461224 -0.067179 -22.291843 105.282387 -50.839710 -8.387358 -7.591517 16.098053 18.028522 -86.674706 39.850258 -108.475845 0.180086 -1.214004 33.018250 -85.396133 22.291357 -7.476557 14.138804 8.886009 7.986408 -1.328749 -3.962749 36.437801 -4.084830 22.590239 -28.684910 -42.134769 -16.530605 -13.728409 55.610416 7.721730 63.939941 64.039063 -117.158112 77.178276 
-26.654095 37.512028 19.591400 -10.007506 15.204177 -110.825737 0.000000 0.000000 0.000000 17.689417 14.551996 -2.934583 20.658749 20.491167 28.601147 22.629539 10.304269 -41.776096 -14.433430 29.998016 20.822769 69.911804 -45.278469 -131.821869 -19.041790 -0.113049 -20.825254 105.101105 -48.828526 -8.076575 -7.310287 15.725457 17.954517 -86.391388 40.258259 -109.027954 0.194957 -1.330654 33.252628 -85.264183 21.631985 -7.523693 12.572298 7.957061 7.186727 -1.230629 -4.694531 37.573639 -6.443731 19.932692 -26.392151 -40.785789 -16.197859 -13.818372 52.909824 8.857721 64.106949 61.574783 -117.123909 73.679802 
-26.681025 37.894398 19.367567 -10.225231 15.205499 -111.765839 0.000000 0.000000 0.000000 17.714302 14.035461 -2.898990 20.652271 19.984240 29.301975 22.686348 10.728107 -41.926704 -13.849174 29.997528 20.502813 70.808662 -45.727394 -132.094437 -17.134624 -0.364799 -19.653587 104.646042 -46.280994 -7.632940 -7.122516 15.497730 17.905209 -86.513283 41.041515 -109.987770 0.214896 -1.339558 33.741142 -85.285599 20.564690 -7.672277 10.994949 6.825844 6.559910 -0.488924 -5.808302 38.889030 -9.151925 17.140871 -23.946836 -39.354137 -15.838980 -13.876732 50.318409 9.868183 64.554245 59.605968 -117.117981 70.554344 
